name processed_emg_signals
nRows=78
nColumns=6
 
endheader
time	RGLTMED	RRF	RADDLONG	RTA	RGM
0.0027879999999999	0.0799586119217189	0.3209067122583315	0.101598982369452	0.4096991494767183	0.1587802479604234
0.0037879999999999	0.0873590546367133	0.3345884547417098	0.1177388105953512	0.3781175755833683	0.174383412012568
0.0047879999999999	0.0947965380522788	0.3483544643328562	0.1338813404393472	0.3467276400695765	0.1900308811340707
0.005787999999999901	0.102266320153812	0.3621946573117667	0.150015563150002	0.3155474368847494	0.2057131121982404
0.006787999999999901	0.1097635883065698	0.3760987721522842	0.1661304476536989	0.2845947559149798	0.2214204928151505
0.007787999999999901	0.117283465002688	0.3900563830871357	0.1822149568437881	0.2538870570470172	0.2371433543180971
0.008787999999999902	0.1248210137654522	0.4040569140860723	0.1982580638965035	0.2234414450221077	0.252871984942917
0.009787999999999901	0.132371245201994	0.4180896532175168	0.2142487685684971	0.1932746451543136	0.2685966431760841
0.010787999999999902	0.1399291231959579	0.43214376736556	0.2301761134316238	0.163402979980282	0.2843075712477237
0.011787999999999903	0.147489571231887	0.4462083172747997	0.2460292000015954	0.1338423468996102	0.2999950087454399
0.012787999999999902	0.1550474788430375	0.4602722728963068	0.2617972047189751	0.1046081968565039	0.315649206324792
0.013787999999999903	0.1625977081742003	0.4743245290085268	0.2774693947427594	0.0757155141054489	0.3312604394919544
0.014787999999999904	0.1701351006509755	0.4883539210883222	0.2930351435184105	0.0471787970961679	0.3468190224340838
0.015787999999999903	0.1776544837473042	0.5023492414082786	0.3084839460842032	0.0190120405072993	0.3623153218726456
0.016787999999999904	0.1851506778426599	0.5162992553372234	0.3238054340825428	0.0087712815472326	0.3777397709152861
0.0177879999999999	0.1926185031606287	0.5301927178212763	0.3389893904472659	0.0361582311197672	0.3930828828817394
0.018787999999999902	0.2000527867801151	0.5440183900225266	0.3540257637426667	0.0631364208234964	0.4083352650798708
0.019787999999999903	0.2074483697104618	0.5577650560919946	0.3689046821349498	0.0896940270090138	0.4234876325085144
0.020787999999999904	0.2148001140217793	0.5714215400526429	0.3836164669806615	0.1158198017152333	0.4385308214643043
0.021787999999999905	0.222102910021908	0.5849767227667118	0.398151646019592	0.1415030833909745	0.4534558030304845
0.022787999999999906	0.2293516834714271	0.5984195589605287	0.4125009661617828	0.1667338063869032	0.4682536964260317
0.023787999999999906	0.2365414028279394	0.6117390942783048	0.4266554058594524	0.191502509221649	0.4829157821943866
0.024787999999999907	0.2436670865104442	0.6249244823355559	0.4406061870553608	0.2158003416290977	0.4974335152115511
0.025787999999999908	0.250723810174311	0.637965001741749	0.454344786699523	0.2396190703966918	0.5117985374936298
0.02678799999999991	0.2577067139867883	0.6508500730613049	0.4678629478258798	0.2629510840059321	0.526002690783449
0.027787999999999903	0.2646110098926173	0.6635692756817914	0.4811526901804836	0.285789396086655	0.540038028894906
0.028787999999999904	0.2714319888589123	0.676112364557919	0.4942063203924055	0.3081276476967063	0.5538968297925333
0.029787999999999905	0.2781650280883014	0.688469286799813	0.5070164416783406	0.3299601084383185	0.5675716073823756
0.030787999999999906	0.2848055981892717	0.7006301980733403	0.5195759630716239	0.3512816764225265	0.5810551229888443
0.03178799999999991	0.2913492702925017	0.7125854787795388	0.5318781081661901	0.3720878770927643	0.5943403964908158
0.03278799999999991	0.2977917231018305	0.7243257499786435	0.5439164233658982	0.392374860919117	0.6074207170892754
0.03378799999999991	0.3041287498679105	0.7358418890227406	0.5556847856293664	0.4121393999746571	0.6202896536779449
0.03478799999999991	0.3103562652720728	0.7471250448593835	0.5671774097002175	0.4313788834062579	0.6329410647879965
0.03578799999999991	0.3164703122072168	0.758166652967575	0.5783888548119516	0.4500913118132501	0.6453691080773485
0.03678799999999991	0.3224670684420132	0.7689584498860197	0.5893140308561767	0.4682752905505881	0.6575682493340074
0.03778799999999991	0.3283428531540894	0.7794924872923439	0.5999482040018913	0.4859300219783218	0.6695332709624007
0.03878799999999991	0.3340941333172516	0.7897611455910293	0.6102870017527742	0.5030552966855896	0.6812592799208728
0.039787999999999914	0.3397175299272058	0.799757146966752	0.6203264174285865	0.5196514837223197	0.6927417150787993
0.04078799999999991	0.3452098240492526	0.8094735678602722	0.6300628140560771	0.535719519874833	0.7039763539623015
0.04178799999999991	0.3505679626708475	0.8189038508245131	0.6394929276544169	0.5512608980222976	0.714959318858482
0.04278799999999991	0.3557890643410509	0.828041815720243	0.6486138698998357	0.5662776546111753	0.7256870822489848
0.04378799999999991	0.3608704245781718	0.8368816702136889	0.6574231301536115	0.5807723562846007	0.7361564715447357
0.04478799999999991	0.3658095210259224	0.8454180195407673	0.6659185768369962	0.5947480857033041	0.746364673094845
0.04578799999999991	0.3706040183374497	0.8536458755047065	0.6740984581352578	0.6082084265944523	0.756309235444284
0.04678799999999991	0.375251772765647	0.8615606646745826	0.6819614020129121	0.621157448065855	0.7659880718196697
0.047787999999999914	0.3797508364371231	0.8691582357545308	0.6895064155236502	0.63359968822533	0.7753994618313588
0.048787999999999915	0.3840994612867579	0.8764348660983083	0.6967328834037744	0.6455401371495749	0.7845420523923377
0.049787999999999916	0.3882961026292086	0.8833872673524044	0.7036405659459577	0.6569842192517502	0.7934148578651624
0.05078799999999992	0.3923394223440456	0.8900125902207229	0.7102295961592158	0.667937775100593	0.802017259454318
0.05178799999999991	0.3962282916520922	0.8963084283522791	0.7165004762279653	0.6784070427463038	0.8103490038633262
0.05278799999999991	0.3999617934624324	0.902272821358814	0.7224540732873395	0.6883986386101714	0.818410201235125
0.05378799999999991	0.4035392242721516	0.9079042569711478	0.7280916145343577	0.6979195379957468	0.8262013223936387
0.05478799999999991	0.4069600956034497	0.9132016723441124	0.7334146816958029	0.706977055279911	0.83372319540315
0.055787999999999914	0.4102241349657398	0.918164454520744	0.7384252048758452	0.7155788238413104	0.8409770014616751
0.056787999999999915	0.4133312863329812	0.92279244006732	0.7431254558088551	0.7237327757828401	0.8479642701438551
0.057787999999999916	0.416281710129838	0.9270859138907744	0.7475180405453978	0.7314471215037265	0.8546868740089199
0.05878799999999992	0.4190757827234706	0.931045607249058	0.7516058916011497	0.7387303291756859	0.8611470225894815
0.05978799999999992	0.4217140954212601	0.9346726949632804	0.7553922595994079	0.7455911041763105	0.8673472557769023
0.06078799999999992	0.4241974529778632	0.9379687918405748	0.7588807044382347	0.752038368531657	0.8732904366183382
0.06178799999999991	0.4265268716177642	0.9409359483182947	0.7620750860138517	0.7580812404183818	0.8789797435393223
0.06278799999999991	0.4287035765808323	0.9435766453430272	0.764979554532378	0.7637290137744867	0.884418662005061
0.06378799999999991	0.430728999199251	0.945893788500166	0.7675985404428848	0.7689911380656286	0.8896109756330679
0.06478799999999992	0.4326047735148094	0.9478907014101856	0.7699367440247389	0.773877198252502	0.8945607567700874
0.06578799999999992	0.4343327324462002	0.9495711184070758	0.7719991246617144	0.778396895002291	0.8992723565462907
0.06678799999999992	0.435914903516799	0.950939176512802	0.7737908898338833	0.782560025185148	0.903750394420322
0.06778799999999992	0.4373535041544505	0.951999406720298	0.7753174838570055	0.7863764626939042	0.9079997472300196
0.06878799999999992	0.4386509365762515	0.952756724597459	0.7765845763981872	0.7898561396227577	0.9120255377652196
0.06978799999999992	0.4398097822730757	0.9532164202252932	0.7775980507957659	0.7930090278385935	0.9158331228805374
0.07078799999999992	0.4408327961102689	0.9533841474862396	0.7783639922103258	0.7958451209766206	0.9194280811660454
0.07178799999999992	0.4417229000618472	0.9532659127219042	0.7788886756329366	0.7983744168909429	0.9228162001936572
0.07278799999999992	0.4424831765963307	0.952868062782936	0.7791785537757504	0.8006069005899641	0.9260034633580808
0.07378799999999992	0.4431168617328441	0.9521972724961156	0.779240244869735	0.8025525276863609	0.9289960363335932
0.07478799999999992	0.443627337786951	0.9512605315751694	0.7790805203937956	0.8042212083909082	0.9318002531714212
0.07578799999999992	0.444018125826644	0.9500651310023144	0.7787062927593955	0.8056227920783234	0.934422602065432
0.07678799999999993	0.4442928778601378	0.9486186489076116	0.778124602973955	0.8067670524514474	0.9368697108154792
0.07778799999999991	0.4444553687780425	0.9469289359730316	0.7773426083053085	0.8076636733280079	0.939148332018241
0.07878799999999991	0.4445094880729802	0.945004100388591	0.7763675699679766	0.8083222350720656	0.9412653280157912
0.07978799999999991	0.4444592313595323	0.9428524923891743	0.7752068408508515	0.8087522016897507	0.9432276556319984
